Coordinates
version=1
nRows=16
nColumns=36
inDegrees=yes

Units are S.I. units (second, meters, Newtons, ...)
If the header above contains a line with 'inDegrees', this indicates whether rotational values are in degrees (yes) or radians (no).

endheader
time	pelvis_tilt	pelvis_list	pelvis_rotation	pelvis_tx	pelvis_ty	pelvis_tz	hip_flexion_r	hip_adduction_r	hip_rotation_r	knee_angle_r	knee_angle_r_beta	ankle_angle_r	subtalar_angle_r	mtp_angle_r	hip_flexion_l	hip_adduction_l	hip_rotation_l	knee_angle_l	knee_angle_l_beta	ankle_angle_l	subtalar_angle_l	mtp_angle_l	lumbar_extension	lumbar_bending	lumbar_rotation	arm_flex_r	arm_add_r	arm_rot_r	elbow_flex_r	pro_sup_r	arm_flex_l	arm_add_l	arm_rot_l	elbow_flex_l	pro_sup_l
      1.95000000	    -28.88829378	     -3.31546964	     -0.81267008	     -0.22693126	      0.68010401	     -0.62973971	     81.08878927	     -4.30501945	      0.58666251	     88.94998981	      1.55247019	     21.62801841	    -10.05408973	     -7.46049005	     82.49992498	     -4.24608099	      8.16495034	     88.83779270	      1.55051198	     27.71462094	     -9.95768125	     -7.46049005	    -36.04386319	      2.05993198	     -1.72196980	     13.46587031	    -15.67863696	     -1.04795739	     54.16706805	     99.40095661	     10.99818505	    -20.49771508	      1.48456616	     53.68078138	     89.54783447
      1.96000000	    -28.21453860	     -3.25580869	     -0.89658011	     -0.22513600	      0.68443560	     -0.63014021	     79.82389117	     -4.14002425	      0.61792174	     88.27708715	      1.54072582	     21.57142558	    -10.23024356	     -7.46078145	     81.20816164	     -3.89585731	      8.37946211	     88.32782942	      1.54161144	     27.53295260	    -10.55603403	     -7.46078145	    -35.58622254	      1.95534243	     -1.68025027	     17.95884966	    -15.49994730	     -0.18951584	     55.30687929	     99.36878194	     16.04825738	    -20.04363778	      1.94690994	     55.34758260	     89.50782792
      1.97000000	    -27.30488686	     -3.40934875	     -1.05099444	     -0.22331403	      0.68944727	     -0.63008720	     78.21750334	     -3.83114218	      0.36492005	     87.53708997	      1.52781044	     21.48882680	    -10.41039943	     -7.46109217	     79.70648840	     -3.74735298	      8.76558947	     87.86269439	      1.53349331	     27.21376003	    -11.30146163	     -7.46109217	    -35.30249263	      1.96509711	     -1.51545174	     22.66548428	    -15.48314699	      0.93741378	     57.13358114	     99.42354639	     21.20670864	    -19.81281837	      2.83419065	     57.56561548	     89.56281860
      1.98000000	    -26.26694560	     -3.63833729	     -1.15394467	     -0.22146640	      0.69471016	     -0.63007103	     76.38451896	     -3.50071562	      0.08295159	     86.71798817	      1.51351441	     21.50043898	    -10.82605931	     -7.46162241	     78.06357065	     -3.66021340	      9.18154540	     87.38354243	      1.52513053	     26.69014257	    -12.40498826	     -7.46162241	    -35.08869829	      2.14713780	     -1.35410655	     27.43726981	    -15.99501644	      2.93633192	     60.13555708	     99.55789616	     26.53319050	    -19.83222356	      4.41556375	     60.41665890	     89.63086849
      1.99000000	    -25.56393100	     -3.75186356	     -1.16164371	     -0.21995539	      0.69970956	     -0.63035144	     74.91446991	     -3.25980091	      0.02558142	     85.80348791	      1.49755337	     21.35118025	    -11.27430617	     -7.46263740	     76.74054286	     -3.39750848	      9.49579704	     86.71489596	      1.51346045	     25.84368529	    -13.69926194	     -7.46263740	    -34.35364784	      2.31423399	     -1.32361993	     32.30330809	    -16.75655622	      5.20788064	     63.67055532	     99.60170461	     32.09109671	    -19.68903195	      6.16187707	     63.44339544	     89.58967041
      2.00000000	    -24.56329308	     -3.79639009	     -1.28127428	     -0.21837950	      0.70600328	     -0.63027864	     73.06620077	     -2.97879862	      0.02345343	     84.71278524	      1.47851702	     21.05113632	    -11.28305475	     -7.46299433	     74.98245041	     -3.29556435	      9.72311384	     85.91843049	      1.49955950	     25.33000682	    -14.05578758	     -7.46299433	    -33.89299942	      2.27053477	     -1.32400657	     37.65498394	    -17.12390486	      6.88202889	     67.06159647	     99.85891696	     37.86775718	    -19.41315043	      7.61503485	     66.74529580	     89.91803752
      2.01000000	    -23.70750830	     -3.90421674	     -1.50215991	     -0.21709946	      0.71222145	     -0.62959186	     71.45598549	     -2.53799285	     -0.07006448	     83.65767425	      1.46010186	     20.61701753	    -11.81099500	     -7.46397327	     73.48368425	     -3.33095351	      9.94219552	     85.22074359	      1.48738257	     24.33840478	    -15.38108557	     -7.46397327	    -33.19649915	      2.17031610	     -1.05724544	     43.11014914	    -18.13836820	      9.39907324	     71.20661237	    100.18891322	     44.15957228	    -19.80343259	     11.27861196	     70.13273616	     90.20445415
      2.02000000	    -22.70071598	     -3.90486333	     -1.77528877	     -0.21562957	      0.71950858	     -0.62864599	     69.57908024	     -2.09445963	     -0.08626099	     82.39391088	      1.43804503	     20.09790537	    -11.93967437	     -7.46444213	     71.66463596	     -3.52561052	      9.90177627	     84.28370453	      1.47102815	     23.58008297	    -15.84176838	     -7.46444213	    -32.65560399	      1.88767544	     -0.94357667	     48.96519428	    -18.74207813	     11.23120701	     75.08703121	    100.56117871	     50.60037465	    -20.01447841	     14.21097771	     73.60648022	     90.58457739
      2.03000000	    -21.99421612	     -3.76057324	     -2.00615199	     -0.21432044	      0.72679822	     -0.62783066	     68.03791026	     -1.82616538	     -0.08249842	     81.06240134	      1.41480580	     19.16983579	    -12.84122595	     -7.46621730	     70.07052278	     -3.57391688	      9.66573797	     83.06141807	      1.44969523	     22.02658113	    -17.47747089	     -7.46621730	    -31.68527106	      1.46509574	     -0.50515065	     54.70268859	    -20.00852818	     13.05425964	     79.37679783	    100.75071511	     57.87566767	    -20.10634114	     18.78646870	     76.15134777	     90.28459633
      2.04000000	    -21.29148490	     -3.64803497	     -2.24332520	     -0.21284769	      0.73498302	     -0.62704098	     66.32392220	     -1.56043467	     -0.06542614	     79.45423414	      1.38673799	     18.47552346	    -13.13736754	     -7.46738208	     68.37590050	     -3.71418475	      9.43026395	     81.71213546	      1.42614580	     21.04762334	    -18.06808680	     -7.46738208	    -30.76686127	      1.16942888	     -0.59499842	     61.17972966	    -20.74603275	     15.53623557	     83.02965540	    100.85322176	     64.84900821	    -20.57812465	     22.22538657	     79.40238942	     90.20432398
      2.05000000	    -20.73471538	     -3.53042593	     -2.50035879	     -0.21112740	      0.74396972	     -0.62617867	     64.60997747	     -1.34117729	     -0.06283783	     77.57799966	      1.35399152	     17.73915685	    -13.19072777	     -7.46805112	     66.65086790	     -3.90619553	      9.22294150	     80.07624646	      1.39759415	     20.12599003	    -18.28140720	     -7.46805112	    -29.71439337	      0.87469550	     -0.80246454	     67.92438024	    -21.29600241	     18.06125041	     86.35435309	    100.93944865	     71.85103522	    -21.22689012	     25.59234819	     82.82033665	     90.35719561
      2.06000000	    -20.42430207	     -3.41366484	     -2.75892990	     -0.20925029	      0.75352587	     -0.62524669	     63.03292316	     -1.13949375	     -0.03208110	     75.47714025	      1.31732461	     16.73662118	    -13.29859927	     -7.46882543	     65.09356551	     -4.19122143	      8.93502943	     78.18708455	      1.36462206	     18.90514995	    -18.58904119	     -7.46882543	    -28.34464054	      0.56423655	     -1.11209369	     74.81316551	    -21.63046144	     20.58807766	     89.06253815	    100.80885418	     79.07086910	    -22.10121941	     29.36269082	     85.88129352	     90.36817220
      2.07000000	    -20.15737151	     -3.34483376	     -3.06297805	     -0.20693836	      0.76421306	     -0.62432922	     61.34424491	     -0.92455765	     -0.07139489	     73.10182134	      1.27586747	     15.36456701	    -13.24260503	     -7.46975420	     63.41642201	     -4.60398831	      8.59902794	     75.99795474	      1.32641453	     17.33612159	    -18.78613437	     -7.46975420	    -27.02562932	      0.30250756	     -1.34308329	     81.70622370	    -21.85243345	     22.85906654	     91.62524363	    100.43845971	     86.22355809	    -22.69172021	     32.40761480	     88.83635433	     90.21227226
      2.08000000	    -19.90855294	     -3.34293305	     -3.32730160	     -0.20407375	      0.77632102	     -0.62363687	     59.44823190	     -0.80777759	     -0.25707527	     70.35480543	      1.22792300	     13.88649917	    -12.54181574	     -7.47017018	     61.56067975	     -5.01878835	      8.32628273	     73.50268805	      1.28286392	     15.86444373	    -18.34120959	     -7.47017018	    -25.80063545	      0.15703633	     -1.45905984	     88.43694063	    -22.05239444	     24.68399626	     94.19467961	    100.37752014	     92.95406722	    -22.71593951	     34.16167155	     91.65287617	     90.34438185
      2.09000000	    -19.74163178	     -3.35211909	     -3.56730192	     -0.20099371	      0.78969287	     -0.62308821	     57.46661205	     -0.71810664	     -0.51370166	     67.24918942	      1.17371977	     11.97295493	    -12.36964890	     -7.46978138	     59.58811602	     -5.33003526	      8.13396199	     70.57187659	      1.23171161	     13.73881000	    -18.75455814	     -7.46978138	    -24.45179049	      0.06165893	     -1.74478277	     95.13412653	    -22.15376308	     27.02960820	     95.74193634	    100.81794350	     99.77220459	    -23.05221032	     36.57217685	     93.71098654	     90.67801685
      2.10000000	    -19.53378895	     -3.49049204	     -3.81267844	     -0.19754111	      0.80460891	     -0.62238085	     55.18711606	     -0.53340944	     -0.93302517	     63.71579832	      1.11205047	      9.38067135	    -12.41332958	     -7.47875161	     57.49745656	     -5.96083733	      7.62058157	     67.35158022	      1.17550683	     10.88682607	    -19.47561891	     -7.47875161	    -23.21412778	      0.11638689	     -1.98077311	    101.27548545	    -21.95455216	     29.12533582	     97.76592050	     93.73612596	    105.99398179	    -23.27438321	     38.67920786	     96.47402544	     84.07689322
